HIERARCHY
ROOT Hips
{
	OFFSET 182.371002 92.491722 19.190800
	CHANNELS 6 Xposition Yposition Zposition Zrotation Yrotation Xrotation 
	JOINT LeftUpLeg
	{
		OFFSET 0.103461 1.857828 10.548504
		CHANNELS 3 Xrotation Yrotation Zrotation
		JOINT LeftLeg
		{
			OFFSET 43.500008 -0.000031 0.000006
			CHANNELS 3 Xrotation Yrotation Zrotation
			JOINT LeftFoot
			{
				OFFSET 42.372200 0.000019 -0.000010
				CHANNELS 3 Xrotation Yrotation Zrotation
				JOINT LeftToe
				{
					OFFSET 17.299999 -0.000000 0.000002
					CHANNELS 3 Xrotation Yrotation Zrotation
					End Site
					{
						OFFSET 0.000000 0.000000 0.000000
					}
				}
			}
		}
	}
	JOINT RightUpLeg
	{
		OFFSET 0.103457 1.857829 -10.548504
		CHANNELS 3 Xrotation Yrotation Zrotation
		JOINT RightLeg
		{
			OFFSET 43.500046 -0.000019 0.000011
			CHANNELS 3 Xrotation Yrotation Zrotation
			JOINT RightFoot
			{
				OFFSET 42.372261 0.000000 0.000008
				CHANNELS 3 Xrotation Yrotation Zrotation
				JOINT RightToe
				{
					OFFSET 17.299990 -0.000006 0.000008
					CHANNELS 3 Xrotation Yrotation Zrotation
					End Site
					{
						OFFSET 0.000000 0.000000 0.000000
					}
				}
			}
		}
	}
	JOINT Spine
	{
		OFFSET 6.901969 -2.603727 -0.000006
		CHANNELS 3 Xrotation Yrotation Zrotation
		JOINT Spine1
		{
			OFFSET 12.588100 -0.000002 0.000002
			CHANNELS 3 Xrotation Yrotation Zrotation
			JOINT Spine2
			{
				OFFSET 12.343195 0.000004 0.000008
				CHANNELS 3 Xrotation Yrotation Zrotation
				JOINT Neck
				{
					OFFSET 25.832905 -0.000008 -0.000002
					CHANNELS 3 Xrotation Yrotation Zrotation
					JOINT Head
					{
						OFFSET 11.766608 0.000010 -0.000008
						CHANNELS 3 Xrotation Yrotation Zrotation
						End Site
						{
							OFFSET 0.000000 0.000000 0.000000
						}
					}
				}
				JOINT LeftShoulder
				{
					OFFSET 19.745903 -1.480370 6.000106
					CHANNELS 3 Xrotation Yrotation Zrotation
					JOINT LeftArm
					{
						OFFSET 11.284119 -0.000006 -0.000014
						CHANNELS 3 Xrotation Yrotation Zrotation
						JOINT LeftForeArm
						{
							OFFSET 33.000050 0.000004 0.000026
							CHANNELS 3 Xrotation Yrotation Zrotation
							JOINT LeftHand
							{
								OFFSET 25.200020 0.000017 0.000004
								CHANNELS 3 Xrotation Yrotation Zrotation
								End Site
								{
									OFFSET 0.000000 0.000000 0.000000
								}
							}
						}
					}
				}
				JOINT RightShoulder
				{
					OFFSET 19.746099 -1.480375 -6.000082
					CHANNELS 3 Xrotation Yrotation Zrotation
					JOINT RightArm
					{
						OFFSET 11.284140 -0.000015 -0.000008
						CHANNELS 3 Xrotation Yrotation Zrotation
						JOINT RightForeArm
						{
							OFFSET 33.000084 0.000016 0.000002
							CHANNELS 3 Xrotation Yrotation Zrotation
							JOINT RightHand
							{
								OFFSET 25.199783 0.000142 0.000437
								CHANNELS 3 Xrotation Yrotation Zrotation
								End Site
								{
									OFFSET 0.000000 0.000000 0.000000
								}
							}
						}
					}
				}
			}
		}
	}
}
MOTION
Frames: 11
Frame Time: 0.033333
183.408905 92.471970 -16.190910 89.927486 -4.995546 -82.832238 -179.260200 -0.176502 -175.995916 -16.446213 -1.284455 -0.352057 82.825408 0.432423 0.638017 21.454562 0.003115 0.000018 -175.532843 0.091903 -176.921912 -9.958794 2.856685 3.793600 81.895006 -2.874645 -0.783908 21.454551 -0.003088 0.000001 7.152328 0.395872 -0.045734 4.291665 0.793189 -0.076894 3.973513 0.792591 -0.081686 17.017758 -4.442394 6.696328 -19.840349 -2.658798 8.137484 -178.724904 -71.413972 -2.662332 -11.950358 59.226947 31.834129 -27.683445 -17.122033 1.347957 8.922791 7.275119 14.078878 -153.015772 74.604852 29.081235 -16.868185 -60.716734 -21.333206 -25.901780 17.214085 -1.297418 1.048623 6.325984 4.375150 
183.633804 92.482323 -16.022329 89.767913 -4.837044 -81.922238 -179.615342 -0.192900 -175.624873 -16.395461 -1.278402 -0.039210 82.601733 0.209821 0.609511 21.454557 0.003106 0.000017 -175.694718 0.040486 -176.175714 -9.963015 2.790988 3.901932 81.901167 -2.957728 -0.832118 21.454553 -0.003093 0.000001 7.163039 0.405458 -0.122813 4.312508 0.815203 -0.230588 3.994382 0.813661 -0.235501 16.674923 -4.672961 6.792451 -20.073890 -2.736812 8.257473 -179.942905 -71.328635 -1.406767 -11.247344 61.072457 37.760814 -27.043290 -16.317614 1.285449 11.209577 -0.274581 7.499838 -156.236493 74.593548 25.782952 -20.932242 -63.539529 -24.892220 -22.275999 13.820565 -1.027227 3.319121 2.403948 9.653432 
183.888397 92.486748 -15.806260 89.678997 -4.741369 -81.174695 179.986522 -0.155296 -175.413383 -16.529280 -1.003810 0.249654 82.450608 -0.037044 0.424327 21.454558 0.003110 0.000017 -175.890458 -0.132198 -175.469103 -10.023981 2.613771 3.947527 81.871012 -2.991826 -0.862490 21.454551 -0.003086 0.000001 7.235966 0.432732 -0.118577 4.458383 0.869711 -0.220554 4.140243 0.868231 -0.225819 16.018810 -5.077342 6.727033 -20.432861 -2.669078 8.129713 179.837214 -71.279724 -1.179435 -7.743848 62.361096 36.322072 -28.670682 -17.969765 1.420065 10.711582 -8.811339 4.964858 -159.819897 74.632569 22.111281 -23.805465 -65.116319 -28.887076 -21.660951 11.979910 -0.901421 3.955296 0.483234 5.136581 
183.978607 92.465530 -15.521670 89.574516 -4.708366 -80.502590 179.507111 0.068798 -174.385098 -16.916126 -0.894128 0.010931 82.390209 0.085922 0.243494 21.454558 0.003100 0.000015 -176.205644 -0.132706 -175.121952 -10.372719 2.543435 4.146945 81.937763 -3.109433 -0.791942 21.454553 -0.003082 0.000003 7.352478 0.492804 0.026420 4.692588 0.984197 0.072648 4.374426 0.984470 0.066701 15.263562 -5.584205 6.385005 -20.874305 -2.401181 7.616071 -177.899189 -71.214544 -3.509359 -6.534204 61.198816 34.285514 -32.079387 -17.941338 1.486671 9.549181 -8.086950 8.144727 -162.120906 75.104617 19.748561 -21.805650 -65.570561 -30.117511 -22.811254 14.387280 -1.070679 1.547268 1.483132 1.886421 
184.047394 92.425797 -15.194230 89.516350 -4.536531 -79.475439 178.575132 0.048190 -174.328298 -17.749191 -0.968046 0.597109 82.396636 -0.278103 0.431376 21.454557 0.003108 0.000017 -176.685806 -0.154214 -174.905039 -10.776956 2.532383 4.633897 82.062606 -3.408065 -0.647277 21.454553 -0.003093 0.000000 7.423057 0.559012 0.166879 4.835218 1.110675 0.356803 4.517073 1.112659 0.350088 14.931398 -5.741606 5.944572 -21.589183 -2.068217 7.008308 -176.736623 -71.378605 -4.709056 -6.568509 59.000055 35.071085 -35.157630 -18.236853 1.574681 9.669871 -3.254819 8.878246 -161.399173 75.429447 20.483681 -17.639008 -63.380085 -33.039251 -27.202238 15.107581 -1.185307 1.328957 5.388131 -5.334870 
184.158707 92.361847 -14.798100 89.427312 -4.382064 -78.086056 177.395026 0.123989 -174.814348 -18.940171 -0.679484 1.700066 82.374199 -1.004961 0.637474 21.454560 0.003114 0.000017 -177.161652 -0.049893 -172.805289 -11.306925 2.449236 4.208316 82.256719 -3.121306 -0.699425 21.454551 -0.003079 0.000002 7.499701 0.627563 0.220846 4.989391 1.245139 0.468356 4.671224 1.247800 0.460828 14.579911 -6.077565 5.548234 -21.798221 -1.415920 6.291236 -177.235705 -71.632422 -4.198703 -7.259732 56.475662 36.608052 -36.732580 -19.050350 1.665217 8.299231 1.327706 10.530465 -159.581004 75.731416 22.339681 -15.951400 -60.574701 -36.088807 -30.031997 15.624037 -1.270322 0.614654 5.366643 -6.519550 
184.235901 92.267502 -14.316440 89.322147 -4.332298 -76.669775 176.175304 0.371398 -174.969489 -20.322434 -0.297422 2.535842 82.335506 -1.556782 0.803524 21.454560 0.003103 0.000018 -177.621583 0.170194 -170.559113 -11.969369 2.431065 3.692743 82.510891 -2.779099 -0.775655 21.454551 -0.003088 0.000001 7.628287 0.708434 0.234297 5.247198 1.405617 0.500291 4.929005 1.408480 0.491796 13.862462 -6.423549 5.257175 -21.268181 -1.170974 5.810829 -178.460795 -71.861260 -2.941462 -8.207740 54.128389 37.320509 -37.523574 -19.521041 1.715514 6.874021 2.974375 12.760933 -158.542679 76.098361 23.395604 -15.854261 -57.437356 -39.444500 -31.403000 16.113791 -1.329062 0.550445 4.721783 -3.225663 
184.277496 92.134903 -13.790340 89.216170 -4.378281 -75.067542 174.887335 0.697497 -174.777560 -21.955891 0.084634 3.270399 82.371016 -2.063611 0.862935 21.454560 0.003107 0.000018 -177.980400 0.338397 -169.419031 -12.564966 2.501571 3.932550 82.784693 -2.913685 -0.657233 21.454550 -0.003099 -0.000001 7.794387 0.821963 0.193180 5.579511 1.633765 0.425617 5.261284 1.636168 0.415726 13.040375 -6.909547 5.086824 -20.581703 -1.093340 5.508337 -179.338091 -72.100611 -2.043066 -9.186962 52.526573 36.643736 -37.975141 -19.956643 1.755312 7.072006 2.342002 14.015120 -157.969189 76.490243 23.974855 -16.615108 -54.317889 -41.348736 -31.667831 15.883475 -1.319711 0.730384 4.676818 0.175393 
184.323303 91.961319 -13.227430 89.204422 -4.356069 -73.320824 173.233637 0.975299 -174.670968 -24.035704 0.482255 4.132423 82.514423 -2.699918 0.742889 21.454562 0.003111 0.000020 -178.563302 0.417399 -168.732761 -13.389566 2.563217 4.522671 83.167033 -3.257225 -0.404764 21.454555 -0.003079 0.000001 7.928579 0.982759 0.126295 5.847729 1.957945 0.301884 5.529436 1.959604 0.290045 12.491215 -7.727355 4.939852 -20.174331 -0.920643 5.196582 -179.991495 -72.162711 -1.372350 -10.327654 51.623854 34.450375 -37.521897 -20.294087 1.765626 7.670019 0.549658 15.088211 -158.405679 77.066097 23.519401 -17.143063 -51.801818 -41.478154 -31.052038 15.359477 -1.273517 0.966801 4.961888 0.366168 
184.382095 91.717407 -12.671240 89.375621 -4.317144 -71.449967 171.152724 0.883408 -175.263802 -26.764918 0.846226 5.367268 83.346264 -3.846179 -0.509727 21.454557 0.003107 0.000017 -179.316590 0.334397 -168.469526 -14.422696 2.682609 5.432807 83.680636 -3.796083 -0.046611 21.454555 -0.003087 0.000000 8.024258 1.181074 0.055690 6.038729 2.357660 0.172705 5.720333 2.358533 0.158454 12.247556 -8.421371 4.759155 -20.129150 -0.787880 4.896297 179.209998 -72.191630 -0.551838 -11.329882 51.332311 31.367026 -36.677993 -20.734624 1.772936 8.121302 -1.504469 14.468866 -159.692691 77.387819 22.201328 -17.516237 -49.520022 -41.308393 -29.642020 15.069901 -1.227299 1.828680 5.219679 -0.452271 
184.438904 91.398010 -12.153380 89.704733 -4.351156 -69.435587 168.821840 0.284195 -175.539523 -29.965239 0.571894 6.325819 85.022249 -5.117442 -3.537900 21.454558 0.003110 0.000018 179.974187 0.099198 -168.154995 -15.457037 2.819706 6.398861 84.225494 -4.362049 0.363331 21.454551 -0.003098 -0.000000 8.098953 1.394948 -0.006142 6.187632 2.788245 0.062034 5.869129 2.788439 0.045186 12.048026 -8.722403 4.514300 -20.072527 -0.744509 4.585941 178.208802 -72.199088 0.477172 -12.258100 51.459239 27.595522 -36.072141 -21.201781 1.788211 8.661254 -4.015361 13.147064 -160.804004 77.372301 21.067819 -17.973201 -47.479322 -40.435311 -27.606156 14.589779 -1.159244 2.688375 5.353714 -1.189987 
